[Header]
FileType HTR
DataType HTRS
FileVersion 1
NumSegments 64
NumFrames 4
DataFrameRate 30
EulerRotationOrder ZYX
CalibrationUnits mm
RotationUnits Degrees
GlobalAxisofGravity Y
BoneLengthAxis Y
ScaleFactor 1.0
[SegmentNames&Hierarchy]
Hips	GLOBAL
Spine	Hips
Spine1	Spine
Spine2	Spine1
Neck	Spine2
Head	Neck
LeftEye	Head
RightEye	Head
LeftShoulder	Spine2
LeftArm	LeftShoulder
LeftForeArm	LeftArm
LeftHand	LeftForeArm
LeftHandThumb1	LeftHand
LeftHandThumb2	LeftHandThumb1
LeftHandThumb3	LeftHandThumb2
LeftHandThumb4	LeftHandThumb3
LeftHandIndex1	LeftHand
LeftHandIndex2	LeftHandIndex1
LeftHandIndex3	LeftHandIndex2
LeftHandIndex4	LeftHandIndex3
LeftHandMiddle1	LeftHand
LeftHandMiddle2	LeftHandMiddle1
LeftHandMiddle3	LeftHandMiddle2
LeftHandMiddle4	LeftHandMiddle3
LeftHandRing1	LeftHand
LeftHandRing2	LeftHandRing1
LeftHandRing3	LeftHandRing2
LeftHandRing4	LeftHandRing3
LeftHandPinky1	LeftHand
LeftHandPinky2	LeftHandPinky1
LeftHandPinky3	LeftHandPinky2
LeftHandPinky4	LeftHandPinky3
RightShoulder	Spine2
RightArm	RightShoulder
RightForeArm	RightArm
RightHand	RightForeArm
RightHandPinky1	RightHand
RightHandPinky2	RightHandPinky1
RightHandPinky3	RightHandPinky2
RightHandPinky4	RightHandPinky3
RightHandRing1	RightHand
RightHandRing2	RightHandRing1
RightHandRing3	RightHandRing2
RightHandRing4	RightHandRing3
RightHandMiddle1	RightHand
RightHandMiddle2	RightHandMiddle1
RightHandMiddle3	RightHandMiddle2
RightHandMiddle4	RightHandMiddle3
RightHandIndex1	RightHand
RightHandIndex2	RightHandIndex1
RightHandIndex3	RightHandIndex2
RightHandIndex4	RightHandIndex3
RightHandThumb1	RightHand
RightHandThumb2	RightHandThumb1
RightHandThumb3	RightHandThumb2
RightHandThumb4	RightHandThumb3
LeftUpLeg	Hips
LeftLeg	LeftUpLeg
LeftFoot	LeftLeg
LeftToeBase	LeftFoot
RightUpLeg	Hips
RightLeg	RightUpLeg
RightFoot	RightLeg
RightToeBase	RightFoot
[BasePosition]
Hips	0	0	0	0	0	0	1
Spine	0	0	0	0	0	0	1
Spine1	0	0	0	0	0	0	1
Spine2	0	0	0	0	0	0	1
Neck	0	0	0	0	0	0	1
Head	0	0	0	0	0	0	1
LeftEye	0	0	0	0	0	0	1
RightEye	0	0	0	0	0	0	1
LeftShoulder	0	0	0	0	0	0	1
LeftArm	0	0	0	0	0	0	1
LeftForeArm	0	0	0	0	0	0	1
LeftHand	0	0	0	0	0	0	1
LeftHandThumb1	0	0	0	0	0	0	1
LeftHandThumb2	0	0	0	0	0	0	1
LeftHandThumb3	0	0	0	0	0	0	1
LeftHandThumb4	0	0	0	0	0	0	1
LeftHandIndex1	0	0	0	0	0	0	1
LeftHandIndex2	0	0	0	0	0	0	1
LeftHandIndex3	0	0	0	0	0	0	1
LeftHandIndex4	0	0	0	0	0	0	1
LeftHandMiddle1	0	0	0	0	0	0	1
LeftHandMiddle2	0	0	0	0	0	0	1
LeftHandMiddle3	0	0	0	0	0	0	1
LeftHandMiddle4	0	0	0	0	0	0	1
LeftHandRing1	0	0	0	0	0	0	1
LeftHandRing2	0	0	0	0	0	0	1
LeftHandRing3	0	0	0	0	0	0	1
LeftHandRing4	0	0	0	0	0	0	1
LeftHandPinky1	0	0	0	0	0	0	1
LeftHandPinky2	0	0	0	0	0	0	1
LeftHandPinky3	0	0	0	0	0	0	1
LeftHandPinky4	0	0	0	0	0	0	1
RightShoulder	0	0	0	0	0	0	1
RightArm	0	0	0	0	0	0	1
RightForeArm	0	0	0	0	0	0	1
RightHand	0	0	0	0	0	0	1
RightHandPinky1	0	0	0	0	0	0	1
RightHandPinky2	0	0	0	0	0	0	1
RightHandPinky3	0	0	0	0	0	0	1
RightHandPinky4	0	0	0	0	0	0	1
RightHandRing1	0	0	0	0	0	0	1
RightHandRing2	0	0	0	0	0	0	1
RightHandRing3	0	0	0	0	0	0	1
RightHandRing4	0	0	0	0	0	0	1
RightHandMiddle1	0	0	0	0	0	0	1
RightHandMiddle2	0	0	0	0	0	0	1
RightHandMiddle3	0	0	0	0	0	0	1
RightHandMiddle4	0	0	0	0	0	0	1
RightHandIndex1	0	0	0	0	0	0	1
RightHandIndex2	0	0	0	0	0	0	1
RightHandIndex3	0	0	0	0	0	0	1
RightHandIndex4	0	0	0	0	0	0	1
RightHandThumb1	0	0	0	0	0	0	1
RightHandThumb2	0	0	0	0	0	0	1
RightHandThumb3	0	0	0	0	0	0	1
RightHandThumb4	0	0	0	0	0	0	1
LeftUpLeg	0	0	0	0	0	0	1
LeftLeg	0	0	0	0	0	0	1
LeftFoot	0	0	0	0	0	0	1
LeftToeBase	0	0	0	0	0	0	1
RightUpLeg	0	0	0	0	0	0	1
RightLeg	0	0	0	0	0	0	1
RightFoot	0	0	0	0	0	0	1
RightToeBase	0	0	0	0	0	0	1
[Hips]
9	-0.7964951992	907.1856689	111.8384857	6.344052792	-0.00704763364	0.8674830198	1.0
10	-0.447761476	858.3226929	138.5993042	7.462497711	0.07838098705	0.5701416135	1.0
11	-0.1852498055	808.4788818	166.9565582	8.758371353	0.1794009358	0.3544464707	1.0
12	0.003427455202	760.4889526	195.8942413	10.32573795	0.3074057996	0.2566655874	1.0
[Spine]
9	0	101.8159943	1.315000057	-3.355734348	-0.08754383773	-0.8630084991	1.0
10	0	101.8159943	1.315000057	-6.856810093	-0.1516706795	-0.555146873	1.0
11	0	101.8159943	1.315000057	-8.467303276	-0.2312799692	-0.3230213523	1.0
12	0	101.8159943	1.315000057	-8.319672585	-0.3488522172	-0.1976101547	1.0
[Spine1]
9	0	100.8349991	-10.00800037	-18.05590439	-2.02948795e-05	6.426992331e-05	1.0
10	0	100.8349991	-10.00800037	-20.91839981	-1.699803033e-05	6.523720367e-05	1.0
11	0	100.8349991	-10.00800037	-22.15260315	-1.555795097e-05	6.558616587e-05	1.0
12	0	100.8349991	-10.00800037	-21.87487793	-1.588230589e-05	6.550933904e-05	1.0
[Spine2]
9	0	91	-13.73399925	-16.41726112	1.195454047e-07	2.931498386e-07	1.0
10	0	91	-13.73399925	-21.33733559	1.468483646e-07	2.808702675e-07	1.0
11	0	91	-13.73399925	-23.53728867	1.585488434e-07	2.743306879e-07	1.0
12	0	91	-13.73399925	-23.08270454	1.561416241e-07	2.757067818e-07	1.0
[Neck]
9	0	166.7169952	-25.16200066	-5.75251627	3.464763836e-07	3.19762961e-07	1.0
10	0	166.7169952	-25.16200066	-7.411284447	3.565067743e-07	3.085879143e-07	1.0
11	0	166.7169952	-25.16200066	-8.642128944	3.63700849e-07	3.000876347e-07	1.0
12	0	166.7169952	-25.16200066	-9.517032623	3.686987782e-07	2.93956532e-07	1.0
[Head]
9	0	96.17900085	16.84999847	15.5077858	-0.1631203741	-0.08517278731	1.0
10	0	96.17900085	16.84999847	20.26721191	-0.1932633519	-0.1475241929	1.0
11	0	96.17900085	16.84999847	21.18149567	-0.2014946491	-0.1876755655	1.0
12	0	96.17900085	16.84999847	17.71709442	-0.2057708055	-0.1961922646	1.0
[LeftEye]
9	30.6760006	64.09500122	92.83599854	0	0	0	1.0
10	30.6760006	64.09500122	92.83599854	0	0	0	1.0
11	30.6760006	64.09500122	92.83599854	0	0	0	1.0
12	30.6760006	64.09500122	92.83599854	0	0	0	1.0
[RightEye]
9	-30.6760006	64.09500122	92.83499908	0	0	0	1.0
10	-30.6760006	64.09500122	92.83499908	0	0	0	1.0
11	-30.6760006	64.09500122	92.83499908	0	0	0	1.0
12	-30.6760006	64.09500122	92.83499908	0	0	0	1.0
[LeftShoulder]
9	45.70400238	109.4599991	-26.28000069	5.309710503	12.29197884	13.84119797	1.0
10	45.70400238	109.4599991	-26.28000069	9.296770096	12.49471855	23.04013443	1.0
11	45.70400238	109.4599991	-26.28000069	12.36587334	11.61651897	30.25154305	1.0
12	45.70400238	109.4599991	-26.28000069	13.92409229	9.895895958	35.47425842	1.0
[LeftArm]
9	105.923996	-5.24600029	-22.32099915	7.236989021	31.16911697	-27.97611237	1.0
10	105.923996	-5.24600029	-22.32099915	13.29973125	26.89206123	-8.935045242	1.0
11	105.923996	-5.24600029	-22.32099915	8.244683266	17.3065033	-0.5915554762	1.0
12	105.923996	-5.24600029	-22.32099915	-6.727043629	9.466944695	0.3959482312	1.0
[LeftForeArm]
9	278.414978	-0.0009999999311	0	3.125393278e-06	-10.40746212	-0.0002007417497	1.0
10	278.414978	-0.0009999999311	0	6.296197171e-06	-13.79457664	-0.0002054871729	1.0
11	278.414978	-0.0009999999311	0	4.273259492e-06	-15.79745102	-0.0002075507946	1.0
12	278.414978	-0.0009999999311	0	-6.141453923e-06	-14.37180042	-0.0002026306902	1.0
[LeftHand]
9	283.2879944	0	0	-54.56668091	8.535775185	8.534490585	1.0
10	283.2879944	0	0	-71.35795593	12.99579811	8.388852119	1.0
11	283.2879944	0	0	-82.2989502	16.1169796	8.195789337	1.0
12	283.2879944	0	0	-84.45541382	17.77430153	9.922100067	1.0
[LeftHandThumb1]
9	24.6609993	-15.75	26.8239994	-10.34941578	-27.32212257	25.93645287	1.0
10	24.6609993	-15.75	26.8239994	-13.17127609	-34.74563599	32.22021866	1.0
11	24.6609993	-15.75	26.8239994	-14.06691933	-40.1452179	33.11504364	1.0
12	24.6609993	-15.75	26.8239994	-8.7364254	-43.7139473	22.38974953	1.0
[LeftHandThumb2]
9	32.29800034	-18.64699936	18.64699936	-0.4877148271	2.782394171	0.03740357235	1.0
10	32.29800034	-18.64699936	18.64699936	-1.003952861	2.717744827	0.1220292002	1.0
11	32.29800034	-18.64699936	18.64699936	-0.6351900697	2.839736223	0.1045774221	1.0
12	32.29800034	-18.64699936	18.64699936	3.035957336	7.704368591	1.065885425	1.0
[LeftHandThumb3]
9	26.52600098	-15.31499958	15.31499958	-17.02575493	-9.215829849	10.95352268	1.0
10	26.52600098	-15.31499958	15.31499958	-18.68902016	-11.04193687	10.7327013	1.0
11	26.52600098	-15.31499958	15.31499958	-16.95007515	-9.132209778	10.96935463	1.0
12	26.52600098	-15.31499958	15.31499958	-9.243876457	-1.036274433	12.46287155	1.0
[LeftHandThumb4]
9	19.54599953	-11.28499985	11.28499985	0	0	0	1.0
10	19.54599953	-11.28499985	11.28499985	0	0	0	1.0
11	19.54599953	-11.28499985	11.28499985	0	0	0	1.0
12	19.54599953	-11.28499985	11.28499985	0	0	0	1.0
[LeftHandIndex1]
9	91.09299469	-5.170999527	22.60099792	0.7775615454	-14.59201908	12.57647705	1.0
10	91.09299469	-5.170999527	22.60099792	1.076134443	-19.89723015	15.56320953	1.0
11	91.09299469	-5.170999527	22.60099792	1.209809065	-22.75354195	14.13259697	1.0
12	91.09299469	-5.170999527	22.60099792	0.9319654703	-21.44804192	5.895410538	1.0
[LeftHandIndex2]
9	36.76399994	0	0	-2.118249407e-15	-1.653888342e-16	-1.501221798e-15	1.0
10	36.76399994	0	0	-3.243190577e-06	0.000807938457	1.028877023e-06	1.0
11	36.76399994	0	0	-1.987846779e-15	-3.180554719e-15	3.180554719e-15	1.0
12	36.76399994	0	0	0.002756257076	-0.08984323591	0.430197835	1.0
[LeftHandIndex3]
9	28.83100128	0	0	-0.1524862498	-1.338329792	13.23279476	1.0
10	28.83100128	0	0	-0.1373976469	-1.260455728	12.45445442	1.0
11	28.83100128	0	0	-0.1371718794	-1.258728027	12.4374609	1.0
12	28.83100128	0	0	-0.08276242018	-1.132263184	11.15748024	1.0
[LeftHandIndex4]
9	23.92700005	0	0	0	0	0	1.0
10	23.92700005	0	0	0	0	0	1.0
11	23.92700005	0	0	0	0	0	1.0
12	23.92700005	0	0	0	0	0	1.0
[LeftHandMiddle1]
9	95.33399963	0	0	0.5934060812	-6.210895538	25.46561432	1.0
10	95.33399963	0	0	0.5716981292	-8.692477226	32.54467773	1.0
11	95.33399963	0	0	0.5951975584	-10.05519295	32.53813934	1.0
12	95.33399963	0	0	0.7166637778	-9.746646881	20.92067528	1.0
[LeftHandMiddle2]
9	36.98199844	0	0	6.889798442e-06	7.604442089e-07	-6.329793541e-05	1.0
10	36.98199844	0	0	1.196349967e-05	-0.001096641296	0.01075865608	1.0
11	36.98199844	0	0	-2.771120535e-06	-3.07629648e-06	-1.482764446e-06	1.0
12	36.98199844	0	0	0.01054660883	-0.02685160562	0.272012502	1.0
[LeftHandMiddle3]
9	29.50900078	0	0	-0.1185997277	-1.183325052	11.67792225	1.0
10	29.50900078	0	0	-0.1449135542	-1.302390814	12.87278938	1.0
11	29.50900078	0	0	-0.1371484697	-1.258737922	12.43747425	1.0
12	29.50900078	0	0	-0.009896287695	-0.4567684531	4.504719734	1.0
[LeftHandMiddle4]
9	28.3390007	0	0	0	0	0	1.0
10	28.3390007	0	0	0	0	0	1.0
11	28.3390007	0	0	0	0	0	1.0
12	28.3390007	0	0	0	0	0	1.0
[LeftHandRing1]
9	91.04499817	-0.4390000105	-18.65100098	0.4776916802	7.659389019	25.95127487	1.0
10	91.04499817	-0.4390000105	-18.65100098	0.3707355559	8.97865963	33.13367844	1.0
11	91.04499817	-0.4390000105	-18.65100098	0.3689244092	10.51780224	33.50484085	1.0
12	91.04499817	-0.4390000105	-18.65100098	0.5887652636	12.90026093	23.04755592	1.0
[LeftHandRing2]
9	31.54000092	0	0	8.472969967e-06	-1.652973697e-05	-2.321270949e-05	1.0
10	31.54000092	0	0	2.408916544e-06	0.0004474666493	-5.155670442e-05	1.0
11	31.54000092	0	0	-2.056517133e-06	-4.305369657e-06	-4.85435703e-05	1.0
12	31.54000092	0	0	0.004824970383	-0.08559375256	0.5858955979	1.0
[LeftHandRing3]
9	29.37700081	0	0	-0.1507902741	-1.328113437	13.13113689	1.0
10	29.37700081	0	0	-0.1369411796	-1.257863641	12.42872047	1.0
11	29.37700081	0	0	-0.1371648759	-1.258736253	12.43745804	1.0
12	29.37700081	0	0	-0.1215422526	-1.241369963	12.24878788	1.0
[LeftHandRing4]
9	26.47500038	0	0	0	0	0	1.0
10	26.47500038	0	0	0	0	0	1.0
11	26.47500038	0	0	0	0	0	1.0
12	26.47500038	0	0	0	0	0	1.0
[LeftHandPinky1]
9	80.77799988	-4.887000084	-38.06099701	1.503764868	33.44612122	15.76131344	1.0
10	80.77799988	-4.887000084	-38.06099701	2.237755775	41.64098358	18.03860283	1.0
11	80.77799988	-4.887000084	-38.06099701	2.367789984	42.60367203	16.12989426	1.0
12	80.77799988	-4.887000084	-38.06099701	2.462224483	43.7877388	11.74531841	1.0
[LeftHandPinky2]
9	36	0	0	4.354686098e-06	-5.444085673e-06	-5.436806168e-05	1.0
10	36	0	0	1.073686121e-06	0.0008346899413	1.994082822e-06	1.0
11	36	0	0	-4.457136129e-06	2.001938356e-06	7.05310913e-06	1.0
12	36	0	0	0.003181384644	-0.09489177167	0.4617346525	1.0
[LeftHandPinky3]
9	21.14200211	0	0	-0.1522545815	-1.336910844	13.21857071	1.0
10	21.14200211	0	0	-0.1371384114	-1.258966088	12.4395752	1.0
11	21.14200211	0	0	-0.1371618509	-1.258738518	12.43745899	1.0
12	21.14200211	0	0	-0.1041962802	-1.182569027	11.65855598	1.0
[LeftHandPinky4]
9	19.75699997	0	0	0	0	0	1.0
10	19.75699997	0	0	0	0	0	1.0
11	19.75699997	0	0	0	0	0	1.0
12	19.75699997	0	0	0	0	0	1.0
[RightShoulder]
9	-45.70000076	109.4620056	-26.28000069	5.309681416	-12.29198933	-13.8412075	1.0
10	-45.70000076	109.4620056	-26.28000069	9.296723366	-12.49473095	-23.04014969	1.0
11	-45.70000076	109.4620056	-26.28000069	12.36581898	-11.61653709	-30.25156975	1.0
12	-45.70000076	109.4620056	-26.28000069	13.92402172	-9.89593029	-35.47428131	1.0
[RightArm]
9	-105.9280014	-5.248000145	-22.32099915	7.236974716	-31.16912842	27.97625542	1.0
10	-105.9280014	-5.248000145	-22.32099915	13.2996769	-26.89208412	8.935213089	1.0
11	-105.9280014	-5.248000145	-22.32099915	8.244623184	-17.30653763	0.59173733	1.0
12	-105.9280014	-5.248000145	-22.32099915	-6.727061749	-9.466939926	-0.3957403302	1.0
[RightForeArm]
9	-278.414978	0	0	2.298959544e-06	10.40725517	-2.496349225e-06	1.0
10	-278.414978	0	0	2.853595788e-06	13.7943821	-1.65619872e-06	1.0
11	-278.414978	0	0	5.558172234e-06	15.7972517	6.644038876e-06	1.0
12	-278.414978	0	0	4.076663572e-06	14.37160778	3.974912488e-06	1.0
[RightHand]
9	-283.2879944	0	0.0009999999311	-53.46402359	-8.01828289	-7.975682735	1.0
10	-283.2879944	0	0.0009999999311	-70.26276398	-12.33647919	-7.997395992	1.0
11	-283.2879944	0	0.0009999999311	-81.18783569	-15.39839363	-7.937289238	1.0
12	-283.2879944	0	0.0009999999311	-83.34384155	-17.04623604	-9.689578056	1.0
[RightHandPinky1]
9	-80.76699829	-4.885000229	-38.06000137	0.7431777716	-22.9156189	-14.52598095	1.0
10	-80.76699829	-4.885000229	-38.06000137	0.7208172679	-21.87273788	-15.39745426	1.0
11	-80.76699829	-4.885000229	-38.06000137	0.695644021	-22.06275368	-13.30513096	1.0
12	-80.76699829	-4.885000229	-38.06000137	0.6200731397	-22.4086647	-8.746452332	1.0
[RightHandPinky2]
9	-36	0	0.0009999999311	2.733301869e-07	0.001589807449	3.971438127e-05	1.0
10	-36	0	0.0009999999311	2.211325381e-07	0.001006091945	9.382243297e-05	1.0
11	-36	0	0.0009999999311	3.061650432e-06	0.001593731577	4.416843149e-05	1.0
12	-36	0	0.0009999999311	0.001755474601	0.0657755062	-0.3840901256	1.0
[RightHandPinky3]
9	-21.14200211	0	0	-0.1213191971	1.063361645	-13.24295998	1.0
10	-21.14200211	0	0	-0.109300293	1.00157392	-12.46506786	1.0
11	-21.14200211	0	0	-0.1092948094	1.001189709	-12.46048927	1.0
12	-21.14200211	0	0	-0.08098541945	0.9297589064	-11.54402351	1.0
[RightHandPinky4]
9	-19.75699997	0	0	0	0	0	1.0
10	-19.75699997	0	0	0	0	0	1.0
11	-19.75699997	0	0	0	0	0	1.0
12	-19.75699997	0	0	0	0	0	1.0
[RightHandRing1]
9	-91.03599548	-0.4390000105	-18.65100098	0.5396703482	-8.052929878	-26.54325104	1.0
10	-91.03599548	-0.4390000105	-18.65100098	0.4847503901	-9.510842323	-33.70662689	1.0
11	-91.03599548	-0.4390000105	-18.65100098	0.4831353426	-11.05581474	-34.04921341	1.0
12	-91.03599548	-0.4390000105	-18.65100098	0.6070900559	-13.23548985	-23.52757263	1.0
[RightHandRing2]
9	-31.54000092	0	0	1.083916814e-07	7.989484061e-07	1.741245796e-06	1.0
10	-31.54000092	0	0	-1.01634464e-06	-0.0003646508267	-1.045450631e-06	1.0
11	-31.54000092	0	0	2.385416092e-15	-0	-7.951386796e-16	1.0
12	-31.54000092	0	0	0.003854688955	0.0681180656	-0.5869266987	1.0
[RightHandRing3]
9	-29.37700081	0	0	-0.1201590225	1.056366086	-13.15537357	1.0
10	-29.37700081	0	0	-0.1091206148	1.000500083	-12.45171261	1.0
11	-29.37700081	0	0	-0.1093055606	1.001184464	-12.46047688	1.0
12	-29.37700081	0	0	-0.09685780108	0.987372756	-12.27156734	1.0
[RightHandRing4]
9	-26.47500038	0	0	0	0	0	1.0
10	-26.47500038	0	0	0	0	0	1.0
11	-26.47500038	0	0	0	0	0	1.0
12	-26.47500038	0	0	0	0	0	1.0
[RightHandMiddle1]
9	-95.32500458	0	0	0.6574593782	5.824207306	-26.33017349	1.0
10	-95.32500458	0	0	0.6840563416	8.168128967	-33.45019531	1.0
11	-95.32500458	0	0	0.7055442929	9.531559944	-33.46915054	1.0
12	-95.32500458	0	0	0.7390643954	9.449800491	-21.86248398	1.0
[RightHandMiddle2]
9	-36.98199844	0	0	1.499838731e-06	1.515264898e-06	2.080190825e-05	1.0
10	-36.98199844	0	0	-5.653070048e-07	0.0008754512528	-0.01083336025	1.0
11	-36.98199844	0	0	4.118430297e-06	1.240989832e-06	4.252499275e-05	1.0
12	-36.98199844	0	0	0.008407672867	0.02135502361	-0.272444427	1.0
[RightHandMiddle3]
9	-29.50900078	0	0	-0.09451644123	0.9391857386	-11.69962215	1.0
10	-29.50900078	0	0	-0.1154881492	1.033876657	-12.89656448	1.0
11	-29.50900078	0	0	-0.1093025878	0.99917382	-12.4604845	1.0
12	-29.50900078	0	0	-0.007883872837	0.3612879813	-4.513121128	1.0
[RightHandMiddle4]
9	-28.3390007	0	0.0009999999311	0	0	0	1.0
10	-28.3390007	0	0.0009999999311	0	0	0	1.0
11	-28.3390007	0	0.0009999999311	0	0	0	1.0
12	-28.3390007	0	0.0009999999311	0	0	0	1.0
[RightHandIndex1]
9	-91.08300018	-5.167999744	22.60099792	0.7497635484	14.46346283	-13.62966633	1.0
10	-91.08300018	-5.167999744	22.60099792	1.022109747	19.70586586	-16.73291969	1.0
11	-91.08300018	-5.167999744	22.60099792	1.126971126	22.59092712	-15.37163067	1.0
12	-91.08300018	-5.167999744	22.60099792	0.8475174904	21.45698547	-7.108627796	1.0
[RightHandIndex2]
9	-36.76399994	0	0	-1.63893526e-06	1.243310635e-06	3.421670772e-05	1.0
10	-36.76399994	0	0	-4.227264071e-06	-0.0006449209177	2.150147702e-05	1.0
11	-36.76399994	0	0	-3.975693398e-16	-7.951386796e-16	-3.180554719e-15	1.0
12	-36.76399994	0	0	0.00220099045	0.07153955847	-0.4311654568	1.0
[RightHandIndex3]
9	-28.83100128	0	0	-0.1215087101	1.064491868	-13.2572155	1.0
10	-28.83100128	0	0	-0.1094782725	1.002566576	-12.47749805	1.0
11	-28.83100128	0	0	-0.1092921346	1.001185775	-12.46047401	1.0
12	-28.83100128	0	0	-0.06595788896	0.9005957246	-11.1783514	1.0
[RightHandIndex4]
9	-23.92700005	0	0	0	0	0	1.0
10	-23.92700005	0	0	0	0	0	1.0
11	-23.92700005	0	0	0	0	0	1.0
12	-23.92700005	0	0	0	0	0	1.0
[RightHandThumb1]
9	-24.64799881	-15.72700024	26.82600021	-11.04894257	28.98848724	-26.16437149	1.0
10	-24.64799881	-15.72700024	26.82600021	-13.81087494	36.3350296	-32.64627075	1.0
11	-24.64799881	-15.72700024	26.82600021	-14.6879921	41.73046494	-33.65552139	1.0
12	-24.64799881	-15.72700024	26.82600021	-9.264247894	45.42130661	-22.79377747	1.0
[RightHandThumb2]
9	-32.29800034	-18.64699936	18.64699936	-0.288330704	-3.33633399	-0.8491572142	1.0
10	-32.29800034	-18.64699936	18.64699936	-0.9897688627	-2.766726017	-0.8314511776	1.0
11	-32.29800034	-18.64699936	18.64699936	-0.5871956348	-3.00855875	-0.8263339996	1.0
12	-32.29800034	-18.64699936	18.64699936	3.610711575	-9.182277679	-2.108468771	1.0
[RightHandThumb3]
9	-26.52600098	-15.31399918	15.31399918	-13.82368755	3.708583593	-11.30797005	1.0
10	-26.52600098	-15.31399918	15.31399918	-15.47394753	5.537368774	-10.95697403	1.0
11	-26.52600098	-15.31399918	15.31399918	-13.74823856	3.624984741	-11.32992363	1.0
12	-26.52600098	-15.31399918	15.31399918	-6.013400078	-4.444092274	-13.42510414	1.0
[RightHandThumb4]
9	-19.54599953	-11.28499985	11.28499985	0	0	0	1.0
10	-19.54599953	-11.28499985	11.28499985	0	0	0	1.0
11	-19.54599953	-11.28499985	11.28499985	0	0	0	1.0
12	-19.54599953	-11.28499985	11.28499985	0	0	0	1.0
[LeftUpLeg]
9	82.07800293	-67.51699829	-15.99599934	-25.57771873	2.169149399	1.853498816	1.0
10	82.07800293	-67.51699829	-15.99599934	-28.85053825	4.126638889	3.337486982	1.0
11	82.07800293	-67.51699829	-15.99599934	-31.15074348	5.449823856	4.692291737	1.0
12	82.07800293	-67.51699829	-15.99599934	-32.75518417	5.150890827	5.611048222	1.0
[LeftLeg]
9	0	-443.7049866	2.845999956	55.96115875	-0.5606811047	-9.772093773	1.0
10	0	-443.7049866	2.845999956	65.52552795	2.175028324	-10.73099804	1.0
11	0	-443.7049866	2.845999956	73.92993164	4.622021675	-10.97815132	1.0
12	0	-443.7049866	2.845999956	80.95246124	6.490891457	-10.28273487	1.0
[LeftFoot]
9	0	-444.2789917	-29.8219986	-37.4997139	4.953557968	3.944602013	1.0
10	0	-444.2789917	-29.8219986	-43.71904755	2.700839758	6.241456985	1.0
11	0	-444.2789917	-29.8219986	-51.11729813	1.305115223	8.122783661	1.0
12	0	-444.2789917	-29.8219986	-58.18848801	0.7151510119	8.928634644	1.0
[LeftToeBase]
9	0	-87.28699493	107.1060028	3.043934584	-0.0162025243	0.04493705183	1.0
10	0	-87.28699493	107.1060028	-0.07617856562	0.001316033537	-0.003227875568	1.0
11	0	-87.28699493	107.1060028	-6.575592124e-05	-2.667878505e-07	-2.628648872e-06	1.0
12	0	-87.28699493	107.1060028	-0.004050944932	7.219284726e-06	-1.847530984e-05	1.0
[RightUpLeg]
9	-82.07800293	-67.51699829	-15.99599934	-40.57289886	-3.34716773	-2.419786453	1.0
10	-82.07800293	-67.51699829	-15.99599934	-51.02898026	-5.013591766	-2.629209995	1.0
11	-82.07800293	-67.51699829	-15.99599934	-61.34846115	-5.924688339	-2.526857376	1.0
12	-82.07800293	-67.51699829	-15.99599934	-71.58576202	-5.226453781	-2.831103563	1.0
[RightLeg]
9	0	-443.7049866	2.861999989	59.46690369	1.527016997	11.07076836	1.0
10	0	-443.7049866	2.861999989	68.76111603	-2.155152559	11.54090405	1.0
11	0	-443.7049866	2.861999989	76.38982391	-4.770406246	11.35110855	1.0
12	0	-443.7049866	2.861999989	82.20912933	-6.462180614	10.48640823	1.0
[RightFoot]
9	0	-444.2770081	-29.83799934	-24.71129608	-6.7406106	-4.006811142	1.0
10	0	-444.2770081	-29.83799934	-24.84134293	-4.691930294	-5.690083027	1.0
11	0	-444.2770081	-29.83799934	-23.59924507	-3.843350172	-6.650616646	1.0
12	0	-444.2770081	-29.83799934	-20.97311401	-4.21789217	-6.106983662	1.0
[RightToeBase]
9	0	-87.28699493	107.1060028	-1.515573604e-05	-2.909377805e-08	-1.999551955e-07	1.0
10	0	-87.28699493	107.1060028	-1.515573604e-05	-2.909377805e-08	-1.999551955e-07	1.0
11	0	-87.28699493	107.1060028	-1.515573604e-05	-2.909377805e-08	-1.999551955e-07	1.0
12	0	-87.28699493	107.1060028	-1.515573604e-05	-2.909377805e-08	-1.999551955e-07	1.0
[EndOfFile]
